<svg width="95" height="56" viewBox="0 0 95 56" fill="none" xmlns="http://www.w3.org/2000/svg">
<g clip-path="url(#clip0_6_1557)">
<path d="M15.3401 35.6308H6.22341L3.84063 42.5281H0.421875L9.12416 18.543H12.6465L21.3488 42.5281H17.8265L15.3401 35.6308ZM10.7817 21.8368C10.7817 21.8368 10.2638 23.9989 9.84936 25.2341L7.15579 32.8517H14.5113L11.8177 25.2341C11.4033 23.9989 10.8853 21.8368 10.7817 21.8368Z" fill="white"/>
<path d="M23.7316 38.1001C23.7316 38.1001 25.7 40.0559 28.7044 40.0559C30.1547 40.0559 31.6051 39.3352 31.6051 37.894C31.6051 34.7029 22.6956 35.4236 22.6956 29.7618C22.6956 26.6736 25.4928 24.8203 28.9116 24.8203C32.7447 24.8203 34.5059 26.6736 34.5059 26.6736L33.1591 29.144C33.1591 29.144 31.6051 27.5999 28.9116 27.5999C27.4612 27.5999 26.1144 28.2176 26.1144 29.6587C26.1144 32.747 35.0239 32.0262 35.0239 37.688C35.0239 40.5703 32.5375 42.7325 28.808 42.7325C24.5604 42.7325 22.2812 40.2615 22.2812 40.2615L23.7316 38.1001Z" fill="white"/>
<path d="M37.716 38.1001C37.716 38.1001 39.6844 40.0559 42.6887 40.0559C44.1391 40.0559 45.5895 39.3352 45.5895 37.894C45.5895 34.7029 36.68 35.4236 36.68 29.7618C36.68 26.6736 39.4772 24.8203 42.8959 24.8203C46.7291 24.8203 48.4903 26.6736 48.4903 26.6736L47.1435 29.144C47.1435 29.144 45.5895 27.5999 42.8959 27.5999C41.4456 27.5999 40.0988 28.2176 40.0988 29.6587C40.0988 32.747 49.0083 32.0262 49.0083 37.688C49.0083 40.5703 46.5219 42.7325 42.7923 42.7325C38.5448 42.7325 36.2656 40.2615 36.2656 40.2615L37.716 38.1001Z" fill="white"/>
<path d="M58.9543 24.9219C63.8235 24.9219 66.4134 28.5251 66.4134 32.9516C66.4134 33.3634 66.3098 34.3927 66.3098 34.3927H53.6708C53.878 38.2015 56.5716 40.0544 59.5759 40.0544C62.5803 40.0544 64.7559 38.0986 64.7559 38.0986L66.1026 40.4661C66.1026 40.4661 63.5127 42.9366 59.3687 42.9366C53.878 42.9366 50.1484 39.025 50.1484 33.878C50.252 28.4221 53.9816 24.9219 58.9543 24.9219ZM62.9947 31.9222C62.8911 28.9369 61.0263 27.4954 58.8507 27.4954C56.3644 27.4954 54.2924 29.0398 53.7744 31.9222H62.9947Z" fill="white"/>
<path d="M70.455 28.2191H68.1758V25.5425H70.5586V20.6016H73.7701V25.5425H77.9141V28.2191H73.7701V35.8367C73.7701 39.2337 76.1529 39.7482 77.4997 39.7482C78.0177 39.7482 78.3285 39.6457 78.3285 39.6457V42.5278C78.3285 42.5278 77.8105 42.6309 77.1889 42.6309C75.0133 42.6309 70.5586 41.9101 70.5586 36.2483C70.455 36.2483 70.455 28.2191 70.455 28.2191Z" fill="white"/>
<path d="M80.0859 40.6746L88.7882 29.7627C89.5134 28.8362 90.2386 28.1156 90.2386 28.1156V28.0125C90.2386 28.0125 89.7206 28.1156 88.581 28.1156H80.5003V25.3359H94.6934V27.1892L85.9911 38.101C85.2659 39.0275 84.5407 39.6452 84.5407 39.6452V39.7477C84.5407 39.7477 85.1623 39.6452 86.3019 39.6452H95.1077V42.4243H80.1895L80.0859 40.6746Z" fill="white"/>
<path d="M92.0031 20.6007C92.1067 20.7037 92.1067 20.8065 92.2103 21.0124C92.2103 21.1153 92.2103 21.2182 92.2103 21.4241L92.1067 21.5271H92.0031C91.7959 21.4242 91.5887 21.2182 91.4851 20.9094C86.9268 13.8064 75.9453 2.68898 56.0544 2.58604C36.1634 2.4831 24.2496 19.1592 24.2496 19.1592C23.7316 19.7768 23.2136 20.3946 22.4884 20.8063C22.1776 21.0122 21.7632 21.115 21.4524 21.218C21.2452 21.218 21.038 21.218 20.9344 21.218C20.4164 21.115 20.1056 20.8063 20.002 20.2916C20.002 20.1887 19.8984 20.189 19.8984 20.086C19.8984 19.8802 19.8984 19.6742 19.8984 19.4683C19.8984 19.3653 20.002 19.3651 20.002 19.2622C20.002 19.1593 20.002 19.0565 20.1056 18.9536C20.3128 18.1301 20.8308 17.3063 21.3488 16.6887C21.3488 16.6887 33.6771 -0.296514 56.158 0.321133C78.6389 0.93878 89.3096 15.9684 92.0031 20.6007Z" fill="white"/>
</g>
<defs>
<clipPath id="clip0_6_1557">
<rect width="95" height="56" fill="white"/>
</clipPath>
</defs>
</svg>
