<svg width="645" height="773" viewBox="0 0 645 773" fill="none" xmlns="http://www.w3.org/2000/svg">
<g clip-path="url(#clip0_711_1713)">
<path d="M1.21545 0.943331C71.594 85.4235 298.319 56.1207 470.514 262.858C642.708 469.66 572.653 686.94 643.42 771.873" stroke="#30422E" stroke-width="1.1" stroke-miterlimit="10"/>
<path d="M1.2228 0.943333C68.3024 81.4776 276.398 55.6032 434.685 245.004C592.713 434.211 530.356 633.574 596.4 715.467" stroke="#30422E" stroke-width="1.1" stroke-miterlimit="10"/>
<path d="M1.22002 0.943335C65.0653 77.5965 254.466 55.021 398.846 227.086C542.708 398.699 487.984 580.079 549.436 659.061" stroke="#30422E" stroke-width="1.1" stroke-miterlimit="10"/>
<path d="M1.2235 0.943337C61.8345 73.7153 232.541 54.4388 363.013 209.168C492.644 363.186 445.682 526.648 502.412 602.654" stroke="#30422E" stroke-width="1.1" stroke-miterlimit="10"/>
<path d="M1.21519 0.94334C58.5918 69.8341 210.604 53.9213 327.104 191.25C442.569 327.738 403.24 473.152 455.377 546.183" stroke="#30422E" stroke-width="1.1" stroke-miterlimit="10"/>
<path d="M1.21258 0.943342C55.3549 65.953 188.738 53.3392 291.265 173.332C392.564 292.225 360.932 419.722 408.412 489.777" stroke="#30422E" stroke-width="1.1" stroke-miterlimit="10"/>
<path d="M1.21993 0.943344C52.128 62.0071 166.817 52.757 255.437 155.414C342.569 256.777 318.57 366.291 361.393 433.37" stroke="#30422E" stroke-width="1.1" stroke-miterlimit="10"/>
<path d="M1.21717 0.943346C48.8909 58.1259 144.885 52.2395 219.598 137.496C292.499 221.265 276.263 312.795 314.428 376.899" stroke="#30422E" stroke-width="1.1" stroke-miterlimit="10"/>
<path d="M1.22064 0.943348C45.5954 54.2448 123.089 51.528 183.765 119.578C244.441 187.628 233.897 259.365 267.404 320.493" stroke="#30422E" stroke-width="1.1" stroke-miterlimit="10"/>
<path d="M1.2123 0.94335C42.3527 50.3636 101.217 50.9458 147.856 101.66C194.495 152.374 191.519 205.934 220.369 264.087" stroke="#30422E" stroke-width="1.1" stroke-miterlimit="10"/>
<path d="M1.22528 0.943352C39.1314 46.4824 79.2368 50.4283 112.033 83.7417C142.5 114.726 149.163 152.438 173.42 207.616" stroke="#30422E" stroke-width="1.1" stroke-miterlimit="10"/>
<path d="M1.217 0.943354C65.4504 78.0493 83.8859 37.7498 126.385 151.209" stroke="#30422E" stroke-width="1.1" stroke-miterlimit="10"/>
<path d="M1.21545 0.943331C71.594 85.4235 1.79762 303.093 174.057 509.83C346.252 716.631 572.653 686.94 643.42 771.873" stroke="#30422E" stroke-width="1.1" stroke-miterlimit="10"/>
<path d="M1.2228 0.943333C68.3024 81.4776 5.23331 281.487 162.874 471.341C320.384 660.937 527.704 635.644 596.4 715.467" stroke="#30422E" stroke-width="1.1" stroke-miterlimit="10"/>
<path d="M1.21448 0.943335C65.0597 77.5965 8.65342 259.817 151.739 432.853C294.502 605.371 482.803 584.348 549.365 658.996" stroke="#30422E" stroke-width="1.1" stroke-miterlimit="10"/>
<path d="M1.2235 0.943337C61.8345 73.7153 12.0261 238.148 140.622 394.365C268.701 549.741 437.92 533.052 502.412 602.59" stroke="#30422E" stroke-width="1.1" stroke-miterlimit="10"/>
<path d="M1.22084 0.94334C58.5975 69.8341 15.4518 216.478 129.494 355.876C242.888 494.111 393.025 481.691 455.447 546.183" stroke="#30422E" stroke-width="1.1" stroke-miterlimit="10"/>
<path d="M1.2243 0.943342C55.3666 65.953 18.8836 194.808 118.371 317.388C217.017 438.481 348.136 430.395 408.424 489.777" stroke="#30422E" stroke-width="1.1" stroke-miterlimit="10"/>
<path d="M1.21993 0.943344C52.128 62.0071 22.3076 173.138 107.176 278.9C191.139 382.915 303.175 379.099 361.393 433.37" stroke="#30422E" stroke-width="1.1" stroke-miterlimit="10"/>
<path d="M1.21717 0.943346C48.8909 58.1259 25.6686 151.533 96.0471 240.412C165.261 327.285 258.215 327.803 314.428 376.964" stroke="#30422E" stroke-width="1.1" stroke-miterlimit="10"/>
<path d="M1.22064 0.943348C45.5954 54.2448 28.971 129.992 84.9246 201.923C140.878 273.854 213.327 276.507 267.404 320.493" stroke="#30422E" stroke-width="1.1" stroke-miterlimit="10"/>
<path d="M1.21407 0.94335C42.3545 50.3636 32.3281 108.322 73.792 163.37C115.256 218.418 168.428 225.146 220.436 264.022" stroke="#30422E" stroke-width="1.1" stroke-miterlimit="10"/>
<path d="M1.21963 0.943352C39.1257 46.4824 35.762 86.6526 62.6068 124.882C87.5757 160.46 123.477 173.85 173.35 207.616" stroke="#30422E" stroke-width="1.1" stroke-miterlimit="10"/>
<path d="M1.217 0.943354C65.4504 78.0493 22.4987 88.9166 126.385 151.209" stroke="#30422E" stroke-width="1.1" stroke-miterlimit="10"/>
<path d="M643.42 771.875L1.21545 0.945284" stroke="#30422E" stroke-width="1.1" stroke-miterlimit="10"/>
</g>
<defs>
<clipPath id="clip0_711_1713">
<rect width="773" height="644.663" fill="white" transform="translate(644.662) rotate(90)"/>
</clipPath>
</defs>
</svg>
