<svg width="223" height="225" viewBox="0 0 223 225" fill="none" xmlns="http://www.w3.org/2000/svg">
<g clip-path="url(#clip0_67_2192)">
<path d="M0.512035 98.9217C24.8488 101.857 57.136 62.4222 116.687 69.6097C176.247 76.8076 198.123 122.762 222.592 125.711" stroke="#738E62" stroke-width="0.721051" stroke-miterlimit="10"/>
<path d="M0.511764 98.9233C23.7099 101.723 53.5003 65.6943 108.144 72.1977C162.715 78.7092 183.099 120.58 206.337 123.759" stroke="#738E62" stroke-width="0.721051" stroke-miterlimit="10"/>
<path d="M0.512735 98.9231C22.5926 101.588 49.8559 68.9541 99.5918 74.7735C149.175 80.5985 168.045 118.385 190.093 121.794" stroke="#738E62" stroke-width="0.721051" stroke-miterlimit="10"/>
<path d="M0.51248 98.9247C21.4741 101.455 46.2102 72.2157 91.0388 77.351C135.622 82.4995 153.011 116.193 173.838 119.842" stroke="#738E62" stroke-width="0.721051" stroke-miterlimit="10"/>
<path d="M0.512219 98.9224C20.3556 101.318 42.5745 75.4839 82.4753 79.9346C122.08 84.4071 137.945 114.006 157.572 117.875" stroke="#738E62" stroke-width="0.721051" stroke-miterlimit="10"/>
<path d="M0.511239 98.9222C19.2364 101.183 38.9386 78.7338 73.9216 82.5103C108.537 86.2964 122.91 111.812 141.327 115.911" stroke="#738E62" stroke-width="0.721051" stroke-miterlimit="10"/>
<path d="M0.512933 98.9238C18.11 101.04 35.2949 81.9955 65.3705 85.0879C95.007 88.1981 107.867 109.63 125.073 113.958" stroke="#738E62" stroke-width="0.721051" stroke-miterlimit="10"/>
<path d="M0.511947 98.9236C16.9908 100.905 31.6584 85.2657 56.8168 87.6636C81.4539 90.0973 92.8222 107.425 108.818 111.983" stroke="#738E62" stroke-width="0.721051" stroke-miterlimit="10"/>
<path d="M0.511688 98.9252C15.8618 100.781 28.014 88.4866 48.2638 90.2412C68.5136 91.9958 77.7773 105.243 92.5622 110.031" stroke="#738E62" stroke-width="0.721051" stroke-miterlimit="10"/>
<path d="M0.511425 98.9268C14.7433 100.648 24.3788 91.7383 39.7003 92.8286C55.0218 93.919 62.7323 103.06 76.3068 108.078" stroke="#738E62" stroke-width="0.721051" stroke-miterlimit="10"/>
<path d="M0.512396 98.9227C13.626 100.51 20.7338 95.0146 31.1485 95.4005C40.8294 95.7649 47.6787 100.862 60.0532 106.1" stroke="#738E62" stroke-width="0.721051" stroke-miterlimit="10"/>
<path d="M0.512141 98.9243C22.7243 101.603 19.5495 92.2476 43.7977 104.147" stroke="#738E62" stroke-width="0.721051" stroke-miterlimit="10"/>
<path d="M0.511058 98.9217C24.8478 101.857 46.8253 147.834 106.386 155.012C165.947 162.21 198.122 122.762 222.591 125.711" stroke="#738E62" stroke-width="0.721051" stroke-miterlimit="10"/>
<path d="M0.51274 98.9233C23.7109 101.723 44.078 143.808 98.6857 150.483C153.233 157.137 182.986 121.322 206.338 123.759" stroke="#738E62" stroke-width="0.721051" stroke-miterlimit="10"/>
<path d="M0.510532 98.921C22.5904 101.586 41.317 139.767 90.9915 145.941C140.534 152.081 167.857 119.867 190.071 121.792" stroke="#738E62" stroke-width="0.721051" stroke-miterlimit="10"/>
<path d="M0.511503 98.9247C21.4732 101.455 38.5486 135.741 83.3006 141.405C127.84 147.011 152.731 118.419 173.827 119.831" stroke="#738E62" stroke-width="0.721051" stroke-miterlimit="10"/>
<path d="M0.512474 98.9245C20.3559 101.32 35.7907 131.702 75.6096 136.865C115.145 141.937 137.594 116.957 157.583 117.867" stroke="#738E62" stroke-width="0.721051" stroke-miterlimit="10"/>
<path d="M0.512215 98.9222C19.2374 101.183 33.0316 127.661 67.9174 132.322C102.439 136.871 122.467 115.502 141.328 115.911" stroke="#738E62" stroke-width="0.721051" stroke-miterlimit="10"/>
<path d="M0.511956 98.9238C18.109 101.04 30.2725 123.624 60.2147 127.794C89.7428 131.819 107.329 114.062 125.072 113.958" stroke="#738E62" stroke-width="0.721051" stroke-miterlimit="10"/>
<path d="M0.51097 98.9236C16.9898 100.905 27.5121 119.605 52.5217 123.254C77.0358 126.755 92.19 112.62 108.827 111.994" stroke="#738E62" stroke-width="0.721051" stroke-miterlimit="10"/>
<path d="M0.512664 98.9252C15.8628 100.781 24.7538 115.609 44.8315 118.715C64.9092 121.822 77.0644 111.169 92.5632 110.031" stroke="#738E62" stroke-width="0.721051" stroke-miterlimit="10"/>
<path d="M0.511682 98.925C14.7435 100.647 21.9835 111.58 37.1287 114.165C52.2739 116.75 61.9262 109.707 76.3076 108.056" stroke="#738E62" stroke-width="0.721051" stroke-miterlimit="10"/>
<path d="M0.512144 98.9245C13.6258 100.511 19.2251 107.541 29.4267 109.634C38.9184 111.585 46.7889 108.264 60.0424 106.111" stroke="#738E62" stroke-width="0.721051" stroke-miterlimit="10"/>
<path d="M0.511164 98.9243C22.7233 101.603 17.4199 109.936 43.7968 104.147" stroke="#738E62" stroke-width="0.721051" stroke-miterlimit="10"/>
<path d="M222.591 125.711L0.511058 98.9217" stroke="#738E62" stroke-width="0.721051" stroke-miterlimit="10"/>
</g>
<defs>
<clipPath id="clip0_67_2192">
<rect width="172.331" height="143.72" fill="white" transform="translate(104.703 0.328125) rotate(46.6735)"/>
</clipPath>
</defs>
</svg>
