<svg width="378" height="328" viewBox="0 0 378 328" fill="none" xmlns="http://www.w3.org/2000/svg">
<g clip-path="url(#clip0_1293_5226)">
<path d="M0.524083 287.059C41.8099 259.99 40.3451 157.358 141.377 91.1314C242.437 24.9086 335.771 67.2799 377.279 40.0614" stroke="#738E62" stroke-width="1.45216" stroke-miterlimit="10"/>
<path d="M0.523177 287.059C39.88 261.26 38.9909 167.112 131.578 106.202C224.065 45.3978 309.8 83.4183 349.71 58.1506" stroke="#738E62" stroke-width="1.45216" stroke-miterlimit="10"/>
<path d="M0.524821 287.06C37.9849 262.505 37.6103 176.865 121.752 121.271C205.666 65.8853 283.771 99.5805 322.147 76.2124" stroke="#738E62" stroke-width="1.45216" stroke-miterlimit="10"/>
<path d="M0.523915 287.06C36.0872 263.749 36.2272 186.617 111.924 136.339C187.261 86.4001 257.771 115.716 294.578 94.3015" stroke="#738E62" stroke-width="1.45216" stroke-miterlimit="10"/>
<path d="M0.523011 287.06C34.1895 264.993 34.8729 196.372 102.093 151.436C168.886 106.918 231.736 131.905 266.981 112.387" stroke="#738E62" stroke-width="1.45216" stroke-miterlimit="10"/>
<path d="M0.524654 287.061C32.2943 266.238 33.4957 206.096 92.268 166.505C150.487 127.406 205.739 148.042 239.418 130.449" stroke="#738E62" stroke-width="1.45216" stroke-miterlimit="10"/>
<path d="M0.523749 287.061C30.3678 267.479 32.1126 215.847 82.4401 181.572C132.114 147.895 179.736 164.206 211.849 148.538" stroke="#738E62" stroke-width="1.45216" stroke-miterlimit="10"/>
<path d="M0.523438 287.062C28.4707 268.724 30.7589 225.603 72.6128 196.641C113.71 168.411 153.707 180.339 184.255 166.597" stroke="#738E62" stroke-width="1.45216" stroke-miterlimit="10"/>
<path d="M0.524488 287.062C26.5716 269.997 29.3267 235.291 62.7869 211.709C96.2472 188.128 127.706 196.503 156.689 184.686" stroke="#738E62" stroke-width="1.45216" stroke-miterlimit="10"/>
<path d="M0.52358 287.062C24.6739 271.24 27.9469 245.013 52.9557 226.806C77.9646 208.598 101.703 212.667 129.12 202.775" stroke="#738E62" stroke-width="1.45216" stroke-miterlimit="10"/>
<path d="M0.521317 287.059C22.7748 272.482 26.5879 254.794 43.1265 241.871C58.5071 229.867 75.67 228.825 101.524 220.83" stroke="#738E62" stroke-width="1.45216" stroke-miterlimit="10"/>
<path d="M0.522368 287.059C38.2043 262.354 21.172 252.068 73.9572 238.919" stroke="#738E62" stroke-width="1.45216" stroke-miterlimit="10"/>
<path d="M0.52213 287.063C41.8079 259.994 135.328 302.27 236.363 236.015C337.424 169.792 335.769 67.2838 377.277 40.0654" stroke="#738E62" stroke-width="1.45216" stroke-miterlimit="10"/>
<path d="M0.523177 287.063C39.88 261.264 125.868 299.635 218.623 239.036C311.257 178.483 310.588 84.7112 349.71 58.1545" stroke="#738E62" stroke-width="1.45216" stroke-miterlimit="10"/>
<path d="M0.522271 287.062C37.9823 262.507 116.376 296.996 200.885 242.029C285.146 187.179 285.408 102.11 322.112 76.2403" stroke="#738E62" stroke-width="1.45216" stroke-miterlimit="10"/>
<path d="M0.523915 287.06C36.0872 263.749 106.884 294.384 183.149 245.019C259.012 195.842 260.23 119.506 294.55 94.2982" stroke="#738E62" stroke-width="1.45216" stroke-miterlimit="10"/>
<path d="M0.523605 287.065C34.1901 264.998 97.3932 291.75 165.411 248.017C232.876 204.512 235.022 136.907 266.985 112.364" stroke="#738E62" stroke-width="1.45216" stroke-miterlimit="10"/>
<path d="M0.522701 287.065C32.2924 266.242 87.9017 289.112 147.673 251.009C206.737 213.206 209.842 154.305 239.416 130.453" stroke="#738E62" stroke-width="1.45216" stroke-miterlimit="10"/>
<path d="M0.523749 287.061C30.3678 267.479 78.4122 286.469 129.933 254.027C180.628 221.899 184.66 171.729 211.849 148.538" stroke="#738E62" stroke-width="1.45216" stroke-miterlimit="10"/>
<path d="M0.523438 287.062C28.4707 268.724 68.9469 283.864 112.195 257.021C154.489 230.594 159.478 189.157 184.284 166.6" stroke="#738E62" stroke-width="1.45216" stroke-miterlimit="10"/>
<path d="M0.524488 287.062C26.5716 269.997 59.5085 281.289 94.4582 260.013C129.408 238.737 134.3 206.556 156.689 184.686" stroke="#738E62" stroke-width="1.45216" stroke-miterlimit="10"/>
<path d="M0.524178 287.063C24.6745 271.242 50.0143 278.681 76.6915 263.004C103.369 247.326 109.091 223.953 129.095 202.744" stroke="#738E62" stroke-width="1.45216" stroke-miterlimit="10"/>
<path d="M0.522676 287.061C22.7762 272.484 40.5223 276.041 58.9491 266.023C76.0969 256.707 83.9074 241.379 101.522 220.861" stroke="#738E62" stroke-width="1.45216" stroke-miterlimit="10"/>
<path d="M0.522368 287.063C38.2043 262.358 40.853 282.073 73.9572 238.923" stroke="#738E62" stroke-width="1.45216" stroke-miterlimit="10"/>
<path d="M377.279 40.0614L0.524083 287.059" stroke="#738E62" stroke-width="1.45216" stroke-miterlimit="10"/>
</g>
<defs>
<clipPath id="clip0_1293_5226">
<rect width="347.067" height="289.445" fill="white" transform="translate(33) rotate(6.54664)"/>
</clipPath>
</defs>
</svg>
