<svg width="32" height="32" viewBox="0 0 32 32" fill="none" xmlns="http://www.w3.org/2000/svg">
<g clip-path="url(#clip0_29_306)">
<path d="M22.1972 24.4982C18.4098 27.2634 13.0889 27.2321 9.30685 24.1118C4.82985 20.4182 4.19475 13.7852 7.88833 9.30821C11.5819 4.83122 18.2149 4.19611 22.6919 7.8897C27.1689 11.5833 27.804 18.2163 24.1105 22.6933M5.48419 16.0008H0.463867M31.5358 16.0008H26.5154M15.9998 5.48517V0.464844M15.9998 31.5367V26.5164M21.1744 16.0004C21.1744 18.8583 18.8577 21.175 15.9998 21.175C13.1419 21.175 10.8252 18.8583 10.8252 16.0004C10.8252 13.1425 13.1419 10.8258 15.9998 10.8258C18.8577 10.8258 21.1744 13.1425 21.1744 16.0004Z" stroke="#738E62" stroke-width="0.7" stroke-linecap="round" stroke-linejoin="round"/>
</g>
<defs>
<clipPath id="clip0_29_306">
<rect width="32" height="32" fill="white"/>
</clipPath>
</defs>
</svg>
