<svg width="53" height="53" viewBox="0 0 53 53" fill="none" xmlns="http://www.w3.org/2000/svg">
<path d="M26.5 0.999999C33.263 1 39.749 3.6866 44.5312 8.46878C49.3134 13.251 52 19.737 52 26.5C52 33.263 49.3134 39.749 44.5312 44.5312C39.749 49.3134 33.263 52 26.5 52C19.737 52 13.251 49.3134 8.46878 44.5312C3.6866 39.749 1.00001 33.263 1.00001 26.5C1.00001 19.737 3.68661 13.251 8.46878 8.46877C13.251 3.6866 19.737 0.999998 26.5 0.999999L26.5 0.999999Z" stroke="#30422E" stroke-width="1.5"/>
<path d="M26.5 1C29.8487 1 33.1646 1.65958 36.2584 2.94107C39.3522 4.22257 42.1633 6.10088 44.5312 8.46878C46.8991 10.8367 48.7774 13.6478 50.0589 16.7416C51.3404 19.8354 52 23.1513 52 26.5" stroke="#A1C889" stroke-width="1.5" stroke-linecap="round"/>
</svg>
