<svg width="266" height="130" viewBox="0 0 266 130" fill="none" xmlns="http://www.w3.org/2000/svg">
<g clip-path="url(#clip0_6_1525)">
<path d="M123.935 111.573C124.265 111.518 124.582 111.397 124.889 111.19C125.69 110.649 125.997 109.57 125.895 108.601C125.85 108.184 125.738 107.767 125.496 107.425C125.138 106.922 124.562 106.681 123.999 106.495C123.485 106.326 123.008 106.07 122.517 105.822C121.525 105.319 120.564 104.75 119.647 104.123C117.82 102.871 116.153 101.378 114.701 99.6923C111.76 96.2756 109.735 92.0867 108.9 87.6323C108.607 86.0567 108.457 84.4535 108.457 82.8503C108.457 82.7641 108.453 82.6814 108.443 82.5986V3.86379C108.443 2.45368 107.315 1.3125 105.921 1.3125C104.527 1.3125 103.398 2.45368 103.398 3.86379V83.2192C103.398 83.3261 103.409 83.4295 103.419 83.533C103.559 84.6707 103.531 85.8291 103.681 86.9669C103.831 88.108 104.049 89.2389 104.326 90.3525C104.871 92.5418 105.655 94.6655 106.66 96.679C108.641 100.644 111.477 104.157 114.909 106.926C116.283 108.032 117.752 109.022 119.296 109.873C120.56 110.573 122.35 111.835 123.931 111.57L123.935 111.573Z" fill="#F3F4EF"/>
<path d="M251.341 11.3532C253.243 11.3981 255.019 11.6256 256.471 11.9773C259.3 12.6599 261.867 14.1907 263.677 16.5144C264.106 17.0661 264.501 17.6763 264.631 18.3693C264.842 19.4932 264.249 20.7275 263.244 21.2515C261.914 21.9411 260.496 21.324 259.709 20.1586C258.455 18.3072 257.47 17.2247 255.217 16.642C252.268 15.8766 249.132 15.8766 246.174 16.5972C243.505 17.2488 240.257 18.4176 240.257 21.7273C240.257 22.5582 240.451 23.2167 240.785 23.7373C241.514 24.8716 242.816 25.2922 246.092 25.8197C248.338 26.1817 250.039 26.3541 251 26.4541C257.255 27.0988 258.369 27.2678 259.879 27.9814C260.892 28.4572 262.242 29.1123 263.421 30.5534C263.649 30.8327 265.769 33.5012 265.408 37.0454C264.815 42.8686 258.076 45.4716 257.32 45.7474C256.338 46.1094 255.619 46.2404 254.531 46.43C249.862 47.2471 244.664 47.0678 240.349 44.913C237.714 43.596 235.151 41.3412 234.943 38.1763C234.851 36.7489 235.979 35.8663 237.278 35.6491C238.494 35.4457 239.289 36.1731 239.691 37.273C240.352 39.0795 241.385 40.1931 243.161 40.9344C245.26 41.8101 247.554 42.1101 249.824 42.1756C251.505 42.2238 253.206 42.148 254.831 41.7136C256.457 41.2792 258.015 40.4621 259.147 39.2037C260.343 37.8694 261.021 35.8698 260.145 34.1873C259.709 33.346 258.83 32.8461 257.957 32.4979C255.131 31.374 252.299 31.6946 249.368 31.3567C243.178 30.6431 235.178 29.4639 235.178 21.4929C235.178 13.5839 244.153 11.1877 251.341 11.3601V11.3532Z" fill="#F3F4EF"/>
<path d="M131.752 46.8833C121.979 46.8833 114.027 38.8398 114.027 28.9553C114.027 19.0708 121.979 11.0273 131.752 11.0273C141.524 11.0273 149.476 19.0708 149.476 28.9553C149.476 38.8398 141.524 46.8833 131.752 46.8833ZM131.752 16.1299C124.761 16.1299 119.072 21.8841 119.072 28.9553C119.072 36.0265 124.761 41.7807 131.752 41.7807C138.742 41.7807 144.431 36.0265 144.431 28.9553C144.431 21.8841 138.742 16.1299 131.752 16.1299Z" fill="#F3F4EF"/>
<path d="M134.219 100.206C124.427 100.206 116.461 92.1489 116.461 82.2437C116.461 72.3385 124.427 64.2812 134.219 64.2812C144.012 64.2812 151.978 72.3385 151.978 82.2437C151.978 92.1489 144.012 100.206 134.219 100.206ZM134.219 69.4528C127.245 69.4528 121.574 75.1897 121.574 82.2437C121.574 89.2977 127.245 95.0346 134.219 95.0346C141.193 95.0346 146.865 89.2977 146.865 82.2437C146.865 75.1897 141.193 69.4528 134.219 69.4528Z" fill="#F3F4EF"/>
<path d="M192.35 46.9107C190.956 46.9107 189.828 45.7695 189.828 44.3594V14.3404C189.828 12.9303 190.956 11.7891 192.35 11.7891C193.744 11.7891 194.873 12.9303 194.873 14.3404V44.3594C194.873 45.7695 193.744 46.9107 192.35 46.9107Z" fill="#F3F4EF"/>
<path d="M190.538 100.24C189.144 100.24 188.016 99.0989 188.016 97.6888V57.7232C188.016 56.3131 189.144 55.1719 190.538 55.1719C191.932 55.1719 193.06 56.3131 193.06 57.7232V97.6888C193.06 99.0989 191.932 100.24 190.538 100.24Z" fill="#F3F4EF"/>
<path d="M192.429 9.56414C191.034 9.56414 189.906 8.42296 189.906 7.01285V4.05129C189.906 2.64118 191.034 1.5 192.429 1.5C193.823 1.5 194.951 2.64118 194.951 4.05129V7.01285C194.951 8.42296 193.823 9.56414 192.429 9.56414Z" fill="#F3F4EF"/>
<path d="M227.825 57.4579C226.148 55.9306 224.123 55.0859 221.85 55.0859C215.96 55.0859 211.201 59.0439 211.201 65.1532V66.1048H208.028C206.804 66.1048 205.812 67.108 205.812 68.3458C205.812 69.5835 206.804 70.5867 208.028 70.5867H211.232V97.7442C211.232 99.1543 212.36 100.295 213.754 100.295C215.148 100.295 216.277 99.1543 216.277 97.7442V70.5867H222.477C223.7 70.5867 224.692 69.5835 224.692 68.3458C224.692 67.108 223.7 66.1048 222.477 66.1048H216.301V65.1532C216.658 61.4228 218.352 59.5576 221.379 59.5576C222.957 59.5576 224.341 60.3988 225.681 61.1366C227.716 62.2571 229.386 58.8749 227.825 57.4545V57.4579Z" fill="#F3F4EF"/>
<path d="M174.719 57.1142C173.042 55.5869 171.018 54.7422 168.744 54.7422C162.854 54.7422 158.096 58.7001 158.096 64.8094V65.761H154.923C153.699 65.761 152.707 66.7643 152.707 68.002C152.707 69.2397 153.699 70.243 154.923 70.243H158.127V97.4004C158.127 98.8105 159.255 99.9517 160.649 99.9517C162.043 99.9517 163.171 98.8105 163.171 97.4004V70.243H169.371C170.595 70.243 171.587 69.2397 171.587 68.002C171.587 66.7643 170.595 65.761 169.371 65.761H163.195V64.8094C163.553 61.079 165.247 59.2138 168.274 59.2138C169.852 59.2138 171.236 60.0551 172.575 60.7929C174.61 61.9134 176.28 58.5312 174.719 57.1107V57.1142Z" fill="#F3F4EF"/>
<path d="M200.858 100.465C199.464 100.465 198.336 99.3242 198.336 97.9141V67.895C198.336 66.4849 199.464 65.3438 200.858 65.3438C202.252 65.3438 203.381 66.4849 203.381 67.895V97.9141C203.381 99.3242 202.252 100.465 200.858 100.465Z" fill="#F3F4EF"/>
<path d="M200.932 63.1188C199.538 63.1188 198.41 61.9777 198.41 60.5675V57.606C198.41 56.1959 199.538 55.0547 200.932 55.0547C202.327 55.0547 203.455 56.1959 203.455 57.606V60.5675C203.455 61.9777 202.327 63.1188 200.932 63.1188Z" fill="#F3F4EF"/>
<path d="M255.338 70.8961C251.667 66.383 246.166 64.4454 240.638 64.9488C239.155 65.0833 237.672 65.3936 236.22 65.8797C229.499 68.1172 224.914 74.6713 224.914 81.808V83.3629C224.914 86.1038 225.678 88.6275 226.85 91.0857C229.713 97.095 235.273 100.184 241.776 100.184H242.877C245.563 100.184 248.668 99.505 251.112 98.3707C252.741 97.6156 256.078 95.3229 254.786 93.1302C254.203 92.1442 252.837 91.6753 251.794 92.1511C251.449 92.3097 251.149 92.551 250.846 92.7785C248.423 94.5886 245.447 95.4919 242.447 95.4919H241.312C238.292 95.4919 235.572 94.1197 233.384 92.1166C233.364 92.0959 233.343 92.0752 233.319 92.0511C230.729 89.5446 230.027 85.628 230.027 85.628H255.983C257.513 85.628 259.51 85.035 259.51 83.1629C259.51 78.512 258.249 74.4782 255.342 70.903L255.338 70.8961ZM254.633 81.3667H229.788C229.788 80.7599 229.935 79.8601 230.221 78.6637C230.784 76.9433 231.571 75.2746 232.689 73.8507C236.98 68.3965 245.457 68.5172 250.495 72.8302C252.451 74.5058 253.655 76.4365 254.268 78.9533C254.316 79.1429 254.923 81.3667 254.629 81.3667H254.633Z" fill="#F3F4EF"/>
<path d="M229.26 17.5289C225.589 13.0158 220.088 11.0782 214.559 11.5816C213.077 11.7161 211.594 12.0264 210.142 12.5125C203.42 14.75 198.836 21.3041 198.836 28.4408V29.9957C198.836 32.7366 199.599 35.2603 200.772 37.7185C203.635 43.7279 209.194 46.817 215.698 46.817H216.799C219.485 46.817 222.59 46.1378 225.034 45.0035C226.663 44.2485 230 41.9557 228.708 39.763C228.125 38.777 226.758 38.3081 225.715 38.7839C225.371 38.9425 225.071 39.1838 224.768 39.4113C222.344 41.2214 219.369 42.1247 216.369 42.1247H215.234C212.214 42.1247 209.494 40.7525 207.306 38.7494C207.286 38.7287 207.265 38.708 207.241 38.6839C204.651 36.1774 203.949 32.2608 203.949 32.2608H229.905C231.435 32.2608 233.432 31.6678 233.432 29.7957C233.432 25.1448 232.171 21.111 229.264 17.5358L229.26 17.5289ZM228.555 27.9995H203.71C203.71 27.3927 203.857 26.4929 204.143 25.2965C204.705 23.5761 205.493 21.9074 206.611 20.4835C210.902 15.0293 219.379 15.15 224.417 19.463C226.373 21.1386 227.577 23.0693 228.19 25.5861C228.238 25.7757 228.844 27.9995 228.551 27.9995H228.555Z" fill="#F3F4EF"/>
<path d="M94.6978 17.5289C91.0269 13.0158 85.5255 11.0782 79.9969 11.5816C78.5142 11.7161 77.0315 12.0264 75.5795 12.5125C68.8579 14.75 64.2734 21.3041 64.2734 28.4408V29.9957C64.2734 32.7366 65.0369 35.2603 66.2095 37.7185C69.0726 43.7279 74.6319 46.817 81.1354 46.817H82.2363C84.9222 46.817 88.0274 46.1378 90.4713 45.0035C92.1005 44.2485 95.4375 41.9557 94.1456 39.763C93.5628 38.777 92.196 38.3081 91.153 38.7839C90.8087 38.9425 90.5088 39.1838 90.2054 39.4113C87.782 41.2214 84.8063 42.1247 81.8068 42.1247H80.6718C77.6518 42.1247 74.9319 40.7525 72.7436 38.7494C72.7231 38.7287 72.7027 38.708 72.6788 38.6839C70.0884 36.1774 69.3862 32.2608 69.3862 32.2608H95.342C96.8725 32.2608 98.8699 31.6678 98.8699 29.7957C98.8699 25.1448 97.6087 21.111 94.7012 17.5358L94.6978 17.5289ZM93.9923 27.9995H69.1476C69.1476 27.3927 69.2942 26.4929 69.5805 25.2965C70.1429 23.5761 70.9303 21.9074 72.0483 20.4835C76.3396 15.0293 84.8165 15.15 89.8543 19.463C91.8108 21.1386 93.014 23.0693 93.6276 25.5861C93.6753 25.7757 94.282 27.9995 93.9889 27.9995H93.9923Z" fill="#F3F4EF"/>
<path d="M60.2947 22.824C60.2334 22.6413 60.172 22.462 60.1141 22.3L60.1004 22.2621C59.9368 21.8311 56.0102 11.7363 45.2564 11.7363C45.2086 11.7363 45.1609 11.7363 45.1132 11.7363C37.9246 11.7949 33.3027 16.4286 30.9849 19.5798C29.0386 16.4562 24.8768 11.7363 17.5213 11.7363C17.4736 11.7363 17.4258 11.7363 17.3781 11.7363C12.1017 11.7811 8.20922 14.2876 5.59148 16.8664V14.0669C5.59148 12.6568 4.46326 11.5156 3.06917 11.5156C1.67509 11.5156 0.546875 12.6568 0.546875 14.0669V44.3721C0.546875 45.7822 1.67509 46.9234 3.06917 46.9234C4.46326 46.9234 5.59148 45.7822 5.59148 44.3721V27.7025C5.64601 27.306 6.14025 24.0859 7.95017 21.7932H7.92972C9.7635 19.5729 12.913 16.8768 17.419 16.8389C17.4497 16.8389 17.4804 16.8389 17.5111 16.8389C23.2987 16.8389 26.2403 21.2829 27.2424 23.2102C27.5798 23.9859 27.9547 25.2167 28.0331 26.9406V44.4307C28.0331 45.8408 29.1613 46.982 30.5554 46.982C31.9495 46.982 33.0777 45.8408 33.0777 44.4307V29.1195C33.0777 29.0816 33.0777 29.0506 33.0811 29.0126C33.1186 26.0132 34.7479 23.0068 34.7479 23.0068L34.7377 23.0137C36.3192 20.7209 39.7686 16.8837 45.1507 16.8389C45.1814 16.8389 45.212 16.8389 45.2427 16.8389C49.9396 16.8389 52.7619 19.7659 54.1969 21.9001L54.1696 21.8794C54.1696 21.8794 55.6216 23.7135 55.7818 28.0783V44.4307C55.7818 45.8408 56.9101 46.982 58.3041 46.982C59.6982 46.982 60.8264 45.8408 60.8264 44.4307V26.1855C60.7515 24.672 60.4754 23.4722 60.2879 22.8206L60.2947 22.824Z" fill="#F3F4EF"/>
<path d="M182.256 0.554688C180.862 0.554688 179.734 1.69587 179.734 3.10597V16.2417L179.672 16.19L179.495 16.0072C177.12 13.6283 174.768 11.901 171.356 11.3597C170.333 11.1977 169.294 11.146 168.257 11.1908C163.53 11.3908 158.853 13.5318 155.735 17.1725C152.531 20.9133 151.464 26.5985 152.06 31.4149C153.134 40.1135 160.339 46.8158 168.99 46.8158C173.22 46.8158 176.908 45.1609 179.707 41.8649H179.734V43.9852C179.734 45.3953 180.862 46.5365 182.256 46.5365C183.65 46.5365 184.778 45.3953 184.778 43.9852V3.10943C184.778 1.69932 183.65 0.558133 182.256 0.558133V0.554688ZM169.461 41.8821H168.793C167.657 41.8821 166.4 41.658 165.019 41.2064C164.106 40.7927 163.22 40.3031 162.395 39.7273C158.635 37.0898 156.812 32.4734 157.02 28.0017C157.217 23.8024 159.204 19.7273 163.066 17.5414C168.943 14.211 178.582 17.1105 179.73 24.2334V33.2732C178.943 37.9173 174.011 41.8856 169.457 41.8856L169.461 41.8821Z" fill="#F3F4EF"/>
<path d="M135.194 105.196C135.03 105.251 134.866 105.307 134.706 105.365C133.067 105.989 131.24 106.948 130.412 108.599C129.825 109.764 130.023 111.33 130.991 112.188C131.516 112.654 132.208 112.888 132.893 113.036C136.114 113.726 139.635 112.936 142.467 111.185C142.515 111.15 142.563 111.112 142.621 111.075C145.034 109.368 146.888 106.879 146.888 106.879C140.225 103.886 135.923 104.972 135.194 105.196Z" fill="#F3F4EF"/>
<path d="M126.022 121.45C125.968 121.284 125.91 121.122 125.862 120.953C125.358 119.257 125.007 117.206 125.797 115.54C126.356 114.365 127.706 113.572 128.971 113.83C129.656 113.972 130.259 114.382 130.791 114.844C133.286 117.016 134.803 120.326 135.144 123.667C135.144 123.729 135.144 123.787 135.147 123.856C135.266 126.831 134.435 129.834 134.435 129.834C128.04 126.29 126.288 122.17 126.022 121.45Z" fill="#F3F4EF"/>
<path d="M148.488 123.283C147.901 123.342 147.349 123.4 146.794 123.449C146.153 123.507 145.509 123.566 144.864 123.607C144.438 123.635 144.012 123.635 143.586 123.638C143.191 123.642 142.795 123.642 142.4 123.635C142.052 123.628 141.705 123.628 141.364 123.58C140.795 123.5 140.222 123.424 139.67 123.28C139.332 123.19 139.005 123.007 138.709 122.811C138.296 122.542 137.955 122.183 137.672 121.77C137.396 121.363 137.182 120.932 137.042 120.453C136.888 119.925 136.834 119.394 136.878 118.849C136.919 118.346 137.045 117.87 137.246 117.405C137.471 116.888 137.792 116.439 138.184 116.046C138.545 115.684 138.964 115.388 139.445 115.198C139.714 115.091 139.983 114.957 140.266 114.912C140.685 114.847 141.115 114.816 141.538 114.833C142.281 114.867 142.979 115.095 143.579 115.543C143.879 115.767 144.155 116.04 144.394 116.333C144.837 116.877 145.256 117.443 145.659 118.018C145.904 118.37 146.108 118.753 146.327 119.122C146.599 119.584 146.875 120.042 147.128 120.515C147.387 120.994 147.622 121.483 147.867 121.97C148.055 122.345 148.239 122.721 148.423 123.097C148.447 123.145 148.457 123.2 148.481 123.276L148.488 123.283Z" fill="#F3F4EF"/>
</g>
<defs>
<clipPath id="clip0_6_1525">
<rect width="266" height="130" fill="white"/>
</clipPath>
</defs>
</svg>
