<svg width="275" height="261" viewBox="0 0 275 261" fill="none" xmlns="http://www.w3.org/2000/svg">
<g clip-path="url(#clip0_1436_6873)">
<path d="M0.416795 155.56C30.3535 150.001 53.9788 91.2679 127.234 77.6713C200.506 64.0834 243.502 110.429 273.601 104.838" stroke="#738E62" stroke-width="0.895642" stroke-miterlimit="10"/>
<path d="M0.418029 155.561C28.9549 150.264 50.8855 96.4948 118.07 83.9098C185.173 71.3611 224.884 113.421 253.609 108.558" stroke="#738E62" stroke-width="0.895642" stroke-miterlimit="10"/>
<path d="M0.41832 155.561C27.5797 150.52 47.7755 101.713 108.89 90.1396C169.824 78.63 206.225 116.411 233.625 112.264" stroke="#738E62" stroke-width="0.895642" stroke-miterlimit="10"/>
<path d="M0.417601 155.561C26.2035 150.775 44.6646 106.931 99.7078 96.3694C154.465 85.9146 187.589 119.394 213.631 115.984" stroke="#738E62" stroke-width="0.895642" stroke-miterlimit="10"/>
<path d="M0.416884 155.561C24.8273 151.031 41.5693 112.158 90.5172 102.615C139.122 93.2079 168.92 122.4 193.621 119.696" stroke="#738E62" stroke-width="0.895642" stroke-miterlimit="10"/>
<path d="M0.417183 155.561C23.4521 151.287 38.4681 117.36 81.3365 108.845C123.773 100.477 150.286 125.383 173.637 123.401" stroke="#738E62" stroke-width="0.895642" stroke-miterlimit="10"/>
<path d="M0.416463 155.561C22.0603 151.534 35.3572 122.579 72.1548 115.074C108.438 107.755 131.641 128.382 153.643 127.122" stroke="#738E62" stroke-width="0.895642" stroke-miterlimit="10"/>
<path d="M0.416748 155.562C20.6851 151.79 32.2629 127.805 62.974 121.304C93.0805 115.039 112.991 131.356 133.643 130.819" stroke="#738E62" stroke-width="0.895642" stroke-miterlimit="10"/>
<path d="M0.41799 155.562C19.3021 152.061 29.1402 132.975 53.7942 127.534C78.4482 122.093 94.3483 134.355 113.651 134.539" stroke="#738E62" stroke-width="0.895642" stroke-miterlimit="10"/>
<path d="M0.417265 155.562C17.9259 152.317 26.038 138.177 44.6037 133.78C63.1694 129.382 75.7038 137.354 93.6574 138.26" stroke="#738E62" stroke-width="0.895642" stroke-miterlimit="10"/>
<path d="M0.417558 155.562C16.5507 152.573 22.9349 143.42 35.4229 140.009C47.0331 136.846 57.0446 140.344 73.6575 141.957" stroke="#738E62" stroke-width="0.895642" stroke-miterlimit="10"/>
<path d="M0.416845 155.558C27.7401 150.485 20.5025 140.574 53.6636 145.673" stroke="#738E62" stroke-width="0.895642" stroke-miterlimit="10"/>
<path d="M0.416795 155.56C30.3535 150.001 73.479 196.337 146.743 182.725C220.015 169.137 243.502 110.429 273.601 104.838" stroke="#738E62" stroke-width="0.895642" stroke-miterlimit="10"/>
<path d="M0.418029 155.561C28.9549 150.264 68.7259 192.583 135.932 180.216C203.059 167.845 225.025 114.342 253.609 108.558" stroke="#738E62" stroke-width="0.895642" stroke-miterlimit="10"/>
<path d="M0.417315 155.561C27.5787 150.52 63.9551 188.821 125.128 177.691C186.133 166.57 206.555 118.239 233.599 112.27" stroke="#738E62" stroke-width="0.895642" stroke-miterlimit="10"/>
<path d="M0.417602 155.561C26.2035 150.775 59.1766 185.074 114.325 175.167C169.2 165.271 188.085 122.137 213.615 115.976" stroke="#738E62" stroke-width="0.895642" stroke-miterlimit="10"/>
<path d="M0.4179 155.561C24.8283 151.031 54.4069 181.311 103.522 172.642C152.268 163.972 169.6 126.025 193.631 119.681" stroke="#738E62" stroke-width="0.895642" stroke-miterlimit="10"/>
<path d="M0.417183 155.561C23.4521 151.287 49.6361 177.549 92.7178 170.118C135.326 162.689 151.129 129.922 173.637 123.401" stroke="#738E62" stroke-width="0.895642" stroke-miterlimit="10"/>
<path d="M0.416463 155.561C22.0603 151.534 44.8654 173.786 81.9049 167.609C118.4 161.414 132.65 133.835 153.643 127.122" stroke="#738E62" stroke-width="0.895642" stroke-miterlimit="10"/>
<path d="M0.416748 155.562C20.6851 151.79 40.1025 170.048 71.1017 165.085C101.459 160.131 114.172 137.748 133.659 130.827" stroke="#738E62" stroke-width="0.895642" stroke-miterlimit="10"/>
<path d="M0.41799 155.562C19.3021 152.061 35.3474 166.335 60.2995 162.56C85.2516 158.786 95.7032 141.645 113.651 134.539" stroke="#738E62" stroke-width="0.895642" stroke-miterlimit="10"/>
<path d="M0.418278 155.562C17.9269 152.317 30.5689 162.588 49.4807 160.027C68.3925 157.466 77.2181 145.533 93.6515 138.236" stroke="#738E62" stroke-width="0.895642" stroke-miterlimit="10"/>
<path d="M0.416553 155.562C16.5497 152.573 25.7972 158.825 38.6668 157.518C50.6417 156.305 58.7378 149.446 73.6478 141.972" stroke="#738E62" stroke-width="0.895642" stroke-miterlimit="10"/>
<path d="M0.418798 155.562C27.7421 150.488 24.5505 162.335 53.6655 145.677" stroke="#738E62" stroke-width="0.895642" stroke-miterlimit="10"/>
<path d="M273.603 104.838L0.418749 155.56" stroke="#738E62" stroke-width="0.895642" stroke-miterlimit="10"/>
</g>
<defs>
<clipPath id="clip0_1436_6873">
<rect width="214.058" height="178.519" fill="white" transform="translate(87.3008) rotate(29.2767)"/>
</clipPath>
</defs>
</svg>
