<svg width="256" height="256" viewBox="0 0 256 256" fill="none" xmlns="http://www.w3.org/2000/svg">
<rect width="256" height="256" fill="#1E291D"/>
<g clip-path="url(#clip0_700_5632)">
<path d="M120.365 167.11C120.644 167.063 120.911 166.962 121.169 166.787C121.844 166.33 122.102 165.42 122.016 164.603C121.979 164.251 121.884 163.899 121.68 163.611C121.379 163.187 120.894 162.983 120.42 162.826C119.986 162.684 119.585 162.469 119.171 162.259C118.336 161.835 117.527 161.355 116.755 160.826C115.216 159.77 113.812 158.511 112.59 157.089C110.113 154.207 108.408 150.674 107.704 146.917C107.458 145.588 107.331 144.235 107.331 142.883C107.331 142.811 107.328 142.741 107.32 142.671V76.261C107.32 75.0716 106.37 74.109 105.196 74.109C104.022 74.109 103.072 75.0716 103.072 76.261V143.194C103.072 143.285 103.08 143.372 103.089 143.459C103.207 144.419 103.184 145.396 103.31 146.355C103.436 147.318 103.62 148.272 103.852 149.211C104.312 151.058 104.972 152.849 105.819 154.547C107.486 157.891 109.874 160.855 112.765 163.19C113.921 164.123 115.159 164.958 116.459 165.676C117.524 166.266 119.031 167.331 120.363 167.107L120.365 167.11Z" fill="#F3F4EF"/>
<path d="M227.655 82.5742C229.257 82.612 230.752 82.8039 231.975 83.1005C234.358 83.6763 236.519 84.9675 238.043 86.9275C238.405 87.3928 238.738 87.9075 238.847 88.492C239.025 89.44 238.525 90.4811 237.679 90.9231C236.559 91.5047 235.365 90.9841 234.702 90.0012C233.646 88.4396 232.816 87.5265 230.919 87.0351C228.436 86.3895 225.795 86.3895 223.304 86.9973C221.056 87.5469 218.321 88.5327 218.321 91.3244C218.321 92.0252 218.485 92.5806 218.766 93.0197C219.38 93.9765 220.477 94.3312 223.235 94.7762C225.127 95.0815 226.559 95.2269 227.368 95.3112C232.635 95.855 233.574 95.9975 234.846 96.5995C235.698 97.0008 236.835 97.5533 237.828 98.7689C238.02 99.0044 239.805 101.255 239.501 104.245C239.002 109.156 233.327 111.352 232.69 111.584C231.863 111.89 231.258 112 230.342 112.16C226.41 112.849 222.032 112.698 218.399 110.881C216.18 109.77 214.021 107.868 213.846 105.198C213.769 103.995 214.719 103.25 215.812 103.067C216.837 102.895 217.506 103.509 217.845 104.437C218.401 105.96 219.271 106.9 220.767 107.525C222.535 108.263 224.466 108.516 226.378 108.572C227.793 108.612 229.225 108.548 230.595 108.182C231.964 107.816 233.275 107.126 234.228 106.065C235.236 104.94 235.807 103.253 235.069 101.834C234.702 101.124 233.961 100.703 233.227 100.409C230.847 99.461 228.462 99.7314 225.993 99.4464C220.781 98.8445 214.044 97.8499 214.044 91.1266C214.044 84.4557 221.602 82.4346 227.655 82.58V82.5742Z" fill="#F3F4EF"/>
<path d="M126.949 112.544C118.72 112.544 112.024 105.76 112.024 97.4225C112.024 89.0853 118.72 82.3009 126.949 82.3009C135.179 82.3009 141.875 89.0853 141.875 97.4225C141.875 105.76 135.179 112.544 126.949 112.544ZM126.949 86.6047C121.062 86.6047 116.272 91.4582 116.272 97.4225C116.272 103.387 121.062 108.24 126.949 108.24C132.836 108.24 137.627 103.387 137.627 97.4225C137.627 91.4582 132.836 86.6047 126.949 86.6047Z" fill="#F3F4EF"/>
<path d="M129.025 157.522C120.778 157.522 114.07 150.726 114.07 142.371C114.07 134.017 120.778 127.221 129.025 127.221C137.271 127.221 143.979 134.017 143.979 142.371C143.979 150.726 137.271 157.522 129.025 157.522ZM129.025 131.583C123.152 131.583 118.376 136.422 118.376 142.371C118.376 148.321 123.152 153.16 129.025 153.16C134.897 153.16 139.674 148.321 139.674 142.371C139.674 136.422 134.897 131.583 129.025 131.583Z" fill="#F3F4EF"/>
<path d="M177.98 112.567C176.806 112.567 175.856 111.605 175.856 110.415V85.0955C175.856 83.9061 176.806 82.9435 177.98 82.9435C179.154 82.9435 180.104 83.9061 180.104 85.0955V110.415C180.104 111.605 179.154 112.567 177.98 112.567Z" fill="#F3F4EF"/>
<path d="M176.456 157.548C175.282 157.548 174.332 156.586 174.332 155.396V121.687C174.332 120.497 175.282 119.535 176.456 119.535C177.63 119.535 178.58 120.497 178.58 121.687V155.396C178.58 156.586 177.63 157.548 176.456 157.548Z" fill="#F3F4EF"/>
<path d="M178.044 81.065C176.87 81.065 175.92 80.1024 175.92 78.913V76.4151C175.92 75.2257 176.87 74.2632 178.044 74.2632C179.218 74.2632 180.168 75.2257 180.168 76.4151V78.913C180.168 80.1024 179.218 81.065 178.044 81.065Z" fill="#F3F4EF"/>
<path d="M207.851 121.466C206.439 120.178 204.734 119.465 202.819 119.465C197.859 119.465 193.852 122.804 193.852 127.957V128.759H191.18C190.15 128.759 189.314 129.605 189.314 130.649C189.314 131.693 190.15 132.54 191.18 132.54H193.878V155.446C193.878 156.635 194.828 157.598 196.002 157.598C197.176 157.598 198.126 156.635 198.126 155.446V132.54H203.348C204.378 132.54 205.213 131.693 205.213 130.649C205.213 129.605 204.378 128.759 203.348 128.759H198.146V127.957C198.448 124.81 199.874 123.237 202.423 123.237C203.752 123.237 204.918 123.946 206.046 124.569C207.759 125.514 209.166 122.661 207.851 121.463V121.466Z" fill="#F3F4EF"/>
<path d="M163.131 121.175C161.719 119.887 160.014 119.174 158.099 119.174C153.139 119.174 149.132 122.513 149.132 127.666V128.468H146.46C145.43 128.468 144.594 129.315 144.594 130.358C144.594 131.402 145.43 132.249 146.46 132.249H149.158V155.155C149.158 156.344 150.108 157.307 151.282 157.307C152.456 157.307 153.406 156.344 153.406 155.155V132.249H158.627C159.658 132.249 160.493 131.402 160.493 130.358C160.493 129.315 159.658 128.468 158.627 128.468H153.426V127.666C153.728 124.519 155.154 122.946 157.703 122.946C159.032 122.946 160.198 123.656 161.326 124.278C163.039 125.223 164.446 122.37 163.131 121.172V121.175Z" fill="#F3F4EF"/>
<path d="M185.145 157.74C183.971 157.74 183.021 156.778 183.021 155.588V130.268C183.021 129.079 183.971 128.116 185.145 128.116C186.319 128.116 187.269 129.079 187.269 130.268V155.588C187.269 156.778 186.319 157.74 185.145 157.74Z" fill="#F3F4EF"/>
<path d="M185.206 126.238C184.032 126.238 183.082 125.275 183.082 124.086V121.588C183.082 120.399 184.032 119.436 185.206 119.436C186.38 119.436 187.33 120.399 187.33 121.588V124.086C187.33 125.275 186.38 126.238 185.206 126.238Z" fill="#F3F4EF"/>
<path d="M231.024 132.798C227.933 128.992 223.3 127.357 218.645 127.782C217.396 127.895 216.147 128.157 214.925 128.567C209.264 130.454 205.404 135.983 205.404 142.002V143.314C205.404 145.626 206.047 147.754 207.034 149.828C209.445 154.896 214.127 157.502 219.603 157.502H220.53C222.792 157.502 225.407 156.929 227.465 155.972C228.837 155.335 231.647 153.401 230.559 151.552C230.069 150.72 228.918 150.325 228.039 150.726C227.749 150.86 227.497 151.063 227.241 151.255C225.2 152.782 222.695 153.544 220.169 153.544H219.213C216.67 153.544 214.379 152.387 212.537 150.697C212.519 150.68 212.502 150.662 212.482 150.642C210.301 148.528 209.709 145.224 209.709 145.224H231.567C232.856 145.224 234.538 144.724 234.538 143.145C234.538 139.222 233.476 135.82 231.027 132.804L231.024 132.798ZM230.43 141.63H209.508C209.508 141.118 209.632 140.359 209.873 139.35C210.347 137.899 211.01 136.491 211.951 135.29C215.565 130.69 222.703 130.792 226.946 134.43C228.593 135.843 229.606 137.471 230.123 139.594C230.163 139.754 230.674 141.63 230.427 141.63H230.43Z" fill="#F3F4EF"/>
<path d="M209.061 87.7854C205.969 83.9788 201.337 82.3445 196.681 82.7691C195.432 82.8825 194.184 83.1442 192.961 83.5543C187.301 85.4415 183.44 90.9697 183.44 96.9892V98.3007C183.44 100.613 184.083 102.741 185.07 104.815C187.482 109.883 192.163 112.489 197.64 112.489H198.567C200.829 112.489 203.443 111.916 205.501 110.959C206.873 110.322 209.684 108.389 208.596 106.539C208.105 105.707 206.954 105.312 206.076 105.713C205.786 105.847 205.533 106.051 205.278 106.242C203.237 107.769 200.731 108.531 198.205 108.531H197.249C194.706 108.531 192.416 107.374 190.573 105.684C190.556 105.667 190.538 105.649 190.518 105.629C188.337 103.515 187.746 100.211 187.746 100.211H209.603C210.892 100.211 212.574 99.7111 212.574 98.1321C212.574 94.2092 211.512 90.8068 209.064 87.7912L209.061 87.7854ZM208.467 96.617H187.545C187.545 96.1052 187.668 95.3462 187.909 94.3371C188.383 92.886 189.046 91.4786 189.987 90.2776C193.601 85.6771 200.74 85.7789 204.982 89.4168C206.629 90.8301 207.643 92.4586 208.159 94.5814C208.2 94.7413 208.71 96.617 208.464 96.617H208.467Z" fill="#F3F4EF"/>
<path d="M95.7451 87.7854C92.6537 83.9788 88.021 82.3445 83.3654 82.7691C82.1168 82.8825 80.8682 83.1442 79.6454 83.5543C73.9851 85.4415 70.1245 90.9697 70.1245 96.9892V98.3007C70.1245 100.613 70.7675 102.741 71.7549 104.815C74.166 109.883 78.8475 112.489 84.324 112.489H85.2512C87.513 112.489 90.1278 111.916 92.1859 110.959C93.5579 110.322 96.3679 108.389 95.2801 106.539C94.7893 105.707 93.6383 105.312 92.7599 105.713C92.47 105.847 92.2174 106.051 91.962 106.242C89.9212 107.769 87.4154 108.531 84.8895 108.531H83.9337C81.3906 108.531 79.1001 107.374 77.2573 105.684C77.2401 105.667 77.2229 105.649 77.2028 105.629C75.0213 103.515 74.43 100.211 74.43 100.211H96.2876C97.5763 100.211 99.2584 99.7111 99.2584 98.1321C99.2584 94.2092 98.1963 90.8068 95.7479 87.7912L95.7451 87.7854ZM95.1509 96.617H74.2291C74.2291 96.1052 74.3525 95.3462 74.5936 94.3371C75.0672 92.886 75.7303 91.4786 76.6718 90.2776C80.2855 85.6771 87.424 85.7789 91.6663 89.4168C93.3139 90.8301 94.3271 92.4586 94.8438 94.5814C94.884 94.7413 95.3949 96.617 95.1481 96.617H95.1509Z" fill="#F3F4EF"/>
<path d="M66.7759 92.2521C66.7243 92.0979 66.6726 91.9467 66.6238 91.81L66.6123 91.778C66.4746 91.4145 63.1679 82.8999 54.1121 82.8999C54.0719 82.8999 54.0317 82.8999 53.9915 82.8999C47.938 82.9494 44.0458 86.8577 42.094 89.5156C40.455 86.881 36.9504 82.8999 30.7562 82.8999C30.716 82.8999 30.6758 82.8999 30.6357 82.8999C26.1924 82.9377 22.9145 85.0518 20.7101 87.227V84.8657C20.7101 83.6764 19.76 82.7138 18.586 82.7138C17.4121 82.7138 16.462 83.6764 16.462 84.8657V110.427C16.462 111.616 17.4121 112.579 18.586 112.579C19.76 112.579 20.7101 111.616 20.7101 110.427V96.3669C20.756 96.0325 21.1722 93.3164 22.6963 91.3826H22.6791C24.2233 89.5098 26.8755 87.2357 30.6701 87.2038C30.6959 87.2038 30.7218 87.2038 30.7476 87.2038C35.6214 87.2038 38.0985 90.9522 38.9424 92.5777C39.2265 93.232 39.5423 94.2702 39.6083 95.7242V110.476C39.6083 111.666 40.5584 112.628 41.7323 112.628C42.9063 112.628 43.8564 111.666 43.8564 110.476V97.5621C43.8564 97.5301 43.8564 97.5039 43.8593 97.4719C43.8908 94.942 45.2628 92.4062 45.2628 92.4062L45.2542 92.412C46.5861 90.4782 49.4908 87.2416 54.0231 87.2038C54.0489 87.2038 54.0747 87.2038 54.1006 87.2038C58.0559 87.2038 60.4325 89.6727 61.6409 91.4727L61.618 91.4553C61.618 91.4553 62.8407 93.0023 62.9756 96.6838V110.476C62.9756 111.666 63.9257 112.628 65.0997 112.628C66.2736 112.628 67.2237 111.666 67.2237 110.476V95.0874C67.1606 93.8107 66.9281 92.7988 66.7702 92.2491L66.7759 92.2521Z" fill="#F3F4EF"/>
<path d="M169.476 73.4664C168.302 73.4664 167.352 74.4289 167.352 75.6183V86.6978L167.301 86.6542L167.151 86.5C165.151 84.4935 163.17 83.0366 160.297 82.58C159.436 82.4434 158.56 82.3998 157.688 82.4376C153.707 82.6062 149.769 84.4121 147.142 87.4829C144.444 90.6381 143.546 95.4334 144.048 99.4959C144.952 106.833 151.02 112.486 158.305 112.486C161.867 112.486 164.973 111.09 167.329 108.31H167.352V110.098C167.352 111.288 168.302 112.25 169.476 112.25C170.65 112.25 171.6 111.288 171.6 110.098V75.6212C171.6 74.4318 170.65 73.4693 169.476 73.4693V73.4664ZM158.701 108.325H158.139C157.183 108.325 156.124 108.136 154.961 107.755C154.192 107.406 153.446 106.993 152.751 106.507C149.585 104.282 148.049 100.389 148.224 96.617C148.391 93.075 150.064 89.6378 153.316 87.7941C158.265 84.985 166.382 87.4306 167.349 93.4385V101.063C166.686 104.98 162.533 108.328 158.698 108.328L158.701 108.325Z" fill="#F3F4EF"/>
<path d="M129.848 161.73C129.71 161.777 129.572 161.823 129.437 161.873C128.057 162.399 126.518 163.207 125.821 164.6C125.327 165.583 125.494 166.903 126.309 167.627C126.751 168.02 127.333 168.218 127.91 168.343C130.623 168.924 133.588 168.259 135.973 166.781C136.013 166.752 136.053 166.72 136.102 166.688C138.134 165.249 139.696 163.149 139.696 163.149C134.084 160.625 130.462 161.541 129.848 161.73Z" fill="#F3F4EF"/>
<path d="M122.123 175.438C122.077 175.299 122.028 175.162 121.988 175.02C121.563 173.589 121.268 171.859 121.934 170.454C122.404 169.462 123.541 168.794 124.606 169.012C125.183 169.131 125.691 169.477 126.139 169.867C128.24 171.699 129.517 174.49 129.804 177.308C129.804 177.361 129.804 177.41 129.807 177.468C129.907 179.978 129.207 182.511 129.207 182.511C123.822 179.521 122.347 176.046 122.123 175.438Z" fill="#F3F4EF"/>
<path d="M141.041 176.985C140.548 177.035 140.083 177.084 139.615 177.125C139.075 177.174 138.533 177.224 137.99 177.259C137.631 177.282 137.273 177.282 136.914 177.285C136.581 177.288 136.248 177.288 135.915 177.282C135.622 177.276 135.329 177.276 135.042 177.236C134.563 177.169 134.081 177.105 133.616 176.983C133.332 176.907 133.056 176.753 132.806 176.587C132.459 176.36 132.172 176.058 131.934 175.709C131.701 175.366 131.52 175.002 131.403 174.598C131.274 174.153 131.228 173.705 131.265 173.246C131.299 172.821 131.406 172.42 131.575 172.027C131.764 171.591 132.034 171.213 132.364 170.882C132.669 170.576 133.022 170.326 133.426 170.166C133.653 170.076 133.88 169.963 134.118 169.925C134.471 169.87 134.833 169.843 135.189 169.858C135.814 169.887 136.403 170.079 136.908 170.457C137.161 170.646 137.393 170.876 137.594 171.123C137.967 171.582 138.32 172.059 138.659 172.545C138.866 172.842 139.038 173.164 139.222 173.475C139.451 173.865 139.684 174.252 139.896 174.65C140.114 175.055 140.312 175.467 140.519 175.877C140.677 176.194 140.832 176.511 140.987 176.828C141.007 176.869 141.016 176.916 141.036 176.98L141.041 176.985Z" fill="#F3F4EF"/>
</g>
<defs>
<clipPath id="clip0_700_5632">
<rect width="224" height="109.65" fill="white" transform="translate(16 73)"/>
</clipPath>
</defs>
</svg>
