<?xml version="1.0"?>
<svg xmlns="http://www.w3.org/2000/svg" viewBox="0 0 64 64" width="512" height="512"><g id="Chat-Communication-Message-Talking-Working_At_Home" data-name="Chat-Communication-Message-Talking-Working At Home"><rect x="31" y="24" width="2" height="2"/><rect x="35" y="24" width="2" height="2"/><rect x="27" y="24" width="2" height="2"/><path d="M20,22v6a3,3,0,0,0,3,3h5.586l2.707,2.707a1,1,0,0,0,1.414,0L35.414,31H41a3,3,0,0,0,3-3V22a3,3,0,0,0-3-3H23A3,3,0,0,0,20,22Zm22,0v6a1,1,0,0,1-1,1H35a1,1,0,0,0-.707.293L32,31.586l-2.293-2.293A1,1,0,0,0,29,29H23a1,1,0,0,1-1-1V22a1,1,0,0,1,1-1H41A1,1,0,0,1,42,22Z"/><path d="M60.99,24.89h-.01L33.93,2.3a3.005,3.005,0,0,0-3.85.01L3.1,24.95a3.071,3.071,0,0,0-.74,3.89,2.976,2.976,0,0,0,2.08,1.43,2.921,2.921,0,0,0,.5.05,2.986,2.986,0,0,0,1.93-.71L8,28.66V61a1,1,0,0,0,1,1H55a1,1,0,0,0,1-1V28.54l1.13.95a3,3,0,0,0,3.86-4.6ZM23,57v3H22V54H20v6H14V54H12v6H11a1,1,0,0,1-1-1V55a4.991,4.991,0,0,1,4.21-4.92,2.984,2.984,0,0,0,5.58-.01,4.979,4.979,0,0,1,4.03,3.66A6.953,6.953,0,0,0,23,57ZM15,42a10.562,10.562,0,0,0,4.4-1.08c.21-.09.4-.17.6-.25V43a3,3,0,0,1-6,0V41.93A7.718,7.718,0,0,0,15,42Zm-1-2.09V39a2.991,2.991,0,0,1,5.95-.45c-.46.17-.91.35-1.33.53A8.669,8.669,0,0,1,15,40,5.022,5.022,0,0,1,14,39.91Zm4,7.99V49a1,1,0,0,1-2,0V47.9a5.05,5.05,0,0,0,2,0ZM39,60H37V56H35v4H29V56H27v4H25V57a4.991,4.991,0,0,1,4.21-4.92,2.987,2.987,0,0,0,5.58,0A4.991,4.991,0,0,1,39,57ZM30,44a10.562,10.562,0,0,0,4.4-1.08c.21-.09.4-.17.6-.25V45a3,3,0,0,1-6,0V43.93A7.718,7.718,0,0,0,30,44Zm-1-2.09V41a2.991,2.991,0,0,1,5.95-.45c-.46.17-.91.35-1.33.53A8.669,8.669,0,0,1,30,42,5.022,5.022,0,0,1,29,41.91Zm4,7.99V51a1,1,0,0,1-2,0V49.9a5.05,5.05,0,0,0,2,0ZM54,59a1,1,0,0,1-1,1H52V54H50v6H44V54H42v6H41V57a6.953,6.953,0,0,0-.82-3.27,4.979,4.979,0,0,1,4.03-3.66,2.984,2.984,0,0,0,5.58.01A4.991,4.991,0,0,1,54,55ZM45,42a10.562,10.562,0,0,0,4.4-1.08c.21-.09.4-.17.6-.25V43a3,3,0,0,1-6,0V41.93A7.718,7.718,0,0,0,45,42Zm-1-2.09V39a2.991,2.991,0,0,1,5.95-.45c-.46.17-.91.35-1.33.53A8.669,8.669,0,0,1,45,40,5.022,5.022,0,0,1,44,39.91Zm4,7.99V49a1,1,0,0,1-2,0V47.9a5.05,5.05,0,0,0,2,0Zm6,2.21a7.04,7.04,0,0,0-4-2.04v-1.1A4.952,4.952,0,0,0,52,43V39a5,5,0,0,0-10,0v4a4.952,4.952,0,0,0,2,3.97v1.1a7.038,7.038,0,0,0-5.25,3.8A6.989,6.989,0,0,0,35,50.07v-1.1A4.952,4.952,0,0,0,37,45V41a5,5,0,0,0-10,0v4a4.952,4.952,0,0,0,2,3.97v1.1a6.989,6.989,0,0,0-3.75,1.8A7.038,7.038,0,0,0,20,48.07v-1.1A4.952,4.952,0,0,0,22,43V39a5,5,0,0,0-10,0v4a4.952,4.952,0,0,0,2,3.97v1.1a7.04,7.04,0,0,0-4,2.04V26.96L32,8.31,54,26.85Zm5.82-22.28a.988.988,0,0,1-1.4.13L32.64,6.24a.987.987,0,0,0-1.29,0L5.58,28.08a.986.986,0,0,1-.81.22,1,1,0,0,1-.7-.49,1.083,1.083,0,0,1,.31-1.33L31.36,3.84A1.047,1.047,0,0,1,32,3.61a1,1,0,0,1,.64.23L59.7,26.43a.948.948,0,0,1,.35.68A.913.913,0,0,1,59.82,27.83Z"/></g></svg>
