<svg height="512" viewBox="0 0 48 60" width="512" xmlns="http://www.w3.org/2000/svg"><g id="Page-1" fill="none" fill-rule="evenodd"><g id="088---Thumbs-Up" fill="rgb(0,0,0)" fill-rule="nonzero" transform="translate(-1)"><path id="Shape" d="m25 4c-11.045695 0-20 8.954305-20 20s8.954305 20 20 20 20-8.954305 20-20c-.0126747-11.0404407-8.9595593-19.98732534-20-20zm0 38c-9.9411255 0-18-8.0588745-18-18s8.0588745-18 18-18 18 8.0588745 18 18c-.0115721 9.9363282-8.0636718 17.9884279-18 18z"/><path id="Shape" d="m25 0c-11.4914198-.00524923-21.3727799 8.13875968-23.56240862 19.419641-2.18962871 11.2808812 3.92746902 22.5302045 14.58640862 26.824359l3.041 4.14c-3.387.442-9.065 1.628-9.065 4.616 0 3.436 7.775 5 15 5s15-1.564 15-5c0-2.974-5.628-4.164-9.068-4.613l3.044-4.143c10.6589396-4.2941545 16.7760373-15.5434778 14.5864086-26.824359-2.1896287-11.28088132-12.0709888-19.42489023-23.5624086-19.419641zm13 55c0 .9-4.423 3-13 3s-13-2.1-13-3c0-.671 2.56-2.181 8.429-2.76l1.712 2.33c.677006.8997046 1.7380319 1.4282428 2.8639995 1.4266691s2.1855121-.5330756 2.8600005-1.4346691l1.7-2.322c5.875.579 8.435 2.089 8.435 2.76zm-5.019-10.513c-1.3413792.5220254-2.7311621.9099186-4.149 1.158-.3606894.0513149-.6649313.2947283-.7941431.6353664-.1292118.3406382-.0629454.7245939.1729711 1.002215s.6041483.404973.961172.3324186c.521-.09 1.042-.206 1.562-.333l-4.474 6.087c-.3083026.3761929-.7684965.5950504-1.2548796.5967916-.4863832.0017413-.9481322-.2138157-1.2591204-.5877916l-4.478-6.1c.52.127 1.041.243 1.562.333.3570237.0725544.7252555-.0547975.961172-.3324186s.3021829-.6615768.1729711-1.002215c-.1292118-.3406381-.4334537-.5840515-.7941431-.6353664-1.4178916-.2478442-2.8076977-.6357438-4.149-1.158-9.86343107-3.8397571-15.59451599-14.158907-13.64108109-24.5615557 1.95343491-10.40264865 11.03761099-17.93975253 21.62208109-17.93975253s19.6686462 7.53710388 21.6220811 17.93975253c1.9534349 10.4026487-3.77765 20.7217986-13.6410811 24.5615557z"/><path id="Shape" d="m34.893 18h-3.948c.9819913-1.5973709 1.6584832-3.3633707 1.995-5.208.3132584-1.6066554-.6427515-3.18905976-2.2106973-3.65918522-1.5679459-.47012545-3.2368906.32522504-3.8593027 1.83918522-.7852193 1.5573383-1.6878259 3.0526566-2.7 4.473-.8154117 1.1407844-1.7981171 2.1521451-2.915 3-.4635988.3683071-.9053472.7633096-1.323 1.183-.016.017-.027.037-.043.055-.5312314-.4401489-1.1991189-.6816349-1.889-.683h-3c-1.6568542 0-3 1.3431458-3 3v10c0 1.6568542 1.3431458 3 3 3h3c.8549315-.0025346 1.6676835-.3717687 2.232-1.014.2775523.2322984.5900743.4192716.926.554l2.219.888c.9446147.3789981 1.953191.573177 2.971.572h6.545c1.4926457.0187574 2.7844415-1.0342225 3.067-2.5.1129538-.6855267-.0138333-1.3890362-.359-1.992.7191156-.4443938 1.2137379-1.1752263 1.359-2.008.1129538-.6855267-.0138333-1.3890362-.359-1.992.7191156-.4443938 1.2137379-1.1752263 1.359-2.008.1445724-.8725383-.101916-1.7645045-.674-2.439-.016-.02-.033-.039-.05-.058.017-.019.034-.038.05-.058.5738156-.6759491.8204141-1.570509.674-2.445-.2825585-1.4657775-1.5743543-2.5187574-3.067-2.5zm-15.893 14c0 .5522847-.4477153 1-1 1h-3c-.5522847 0-1-.4477153-1-1v-10c0-.5522847.4477153-1 1-1h3c.5522847 0 1 .4477153 1 1zm16-8c.2959084-.0001277.5766789.1308044.7667785.3575729.1900995.2267685.2700055.526085.2182215.8174271-.1220998.4992947-.5783433.8439842-1.092.825h-.893c-.5522847 0-1 .4477153-1 1s.4477153 1 1 1c.2959084-.0001277.5766789.1308044.7667785.3575729.1900995.2267685.2700055.526085.2182215.8174271-.1220998.4992947-.5783433.8439842-1.092.825h-.893c-.5522847 0-1 .4477153-1 1s.4477153 1 1 1c.2959084-.0001277.5766789.1308044.7667785.3575729.1900995.2267685.2700055.526085.2182215.8174271-.1220998.4992947-.5783433.8439842-1.092.825h-6.545c-.7636565.000475-1.5203197-.1454941-2.229-.43l-2.219-.887c-.5446599-.2164449-.9015918-.7439111-.9-1.33v-9.353-.019c-.0014784-.362649.1363382-.7120231.385-.976.362003-.3605123.7442916-.7000647 1.145-1.017 1.2667461-.9714621 2.3793214-2.1288776 3.3-3.433 1.1006218-1.5236137 2.0678683-3.13926 2.891-4.829.180545-.4431463.6135126-.7309984 1.092-.726.3537585-.0004072.6891992.1572575.9146215.4298928.2254224.2726353.3172496.6317263.2503785.9791072-.3842678 2.1913196-1.3327434 4.2447417-2.752 5.958-.2445321.29906-.2949399.7122196-.1294846 1.0613004s.5171779.571641.9034846.5716996h5.893c.5136567-.0189842.9699002.3257053 1.092.825.051784.2913421-.028122.5906586-.2182215.8174271-.1900996.2267685-.4708701.3577006-.7667785.3575729-.5522847 0-1 .4477153-1 1s.4477153 1 1 1z"/></g></g></svg>